PLOT

Every town has a local legend. Not all of them are deadly. Headed to Miami to celebrate winter break, a group of four
college students from New Jersey take a detour into the bowels of rural West Virginia. There, the unwitting
friends uncover a grotesque legend that stains the fabric of Rolling Glen, a sleepy backwoods town...


Encoded By .......: BigPerm
Runtime ..........: 1h 33mn
File Size ........: 712 MB
Resolution .......: 656 x 352 
http://www.imdb.com/title/tt0887770/
Genre ............: Horror,Mystery,Thriller
Language .........: English
Subtitles ........: None
Format : AVI
Format/Info : Audio Video Interleave
File size : 712 MiB
Duration : 1h 33mn
Overall bit rate : 1 060 Kbps
Writing application : VirtualDubMod 1.5.10.2 (build 2540/release)
Writing library : VirtualDubMod build 2540/release

Video
ID : 0
Format : MPEG-4 Visual
Format profile : Advanced Simple@L5
Format settings, BVOP : Yes
Format settings, QPel : No
Format settings, GMC : No warppoints
Format settings, Matrix : Default (H.263)
Muxing mode : Packed bitstream
Codec ID : XVID
Codec ID/Hint : XviD
Duration : 1h 33mn
Bit rate : 824 Kbps
Width : 656 pixels
Height : 352 pixels
Display aspect ratio : 1.864
Frame rate : 29.970 fps
Color space : YUV
Chroma subsampling : 4:2:0
Bit depth : 8 bits
Scan type : Progressive
Compression mode : Lossy
Bits/(Pixel*Frame) : 0.119
Stream size : 553 MiB (78%)
Writing library : XviD 1.2.1 (UTC 2008-12-04)

Audio
ID : 1
Format : AC-3
Format/Info : Audio Coding 3
Mode extension : CM (complete main)
Codec ID : 2000
Duration : 1h 33mn
Bit rate mode : Constant
Bit rate : 224 Kbps
Channel(s) : 2 channels
Channel positions : Front: L R
Sampling rate : 48.0 KHz
Bit depth : 16 bits
Compression mode : Lossy
Stream size : 150 MiB (21%)
Alignment : Split accross interleaves
Interleave, duration : 33 ms (1.00 video frame)
Interleave, preload duration : 500 ms
